HIERARCHY
ROOT hip
{
  OFFSET -0.570224 89.8853 2.43558
  CHANNELS 6 Xposition Yposition Zposition Zrotation Xrotation Yrotation
  JOINT abdomen
  {
    OFFSET 0 7.2397 0
    CHANNELS 6 Xposition Yposition Zposition Zrotation Xrotation Yrotation
    JOINT chest
    {
      OFFSET 0 16.546 0
      CHANNELS 6 Xposition Yposition Zposition Zrotation Xrotation Yrotation
      JOINT neck
      {
        OFFSET 0 34.2149 0
        CHANNELS 6 Xposition Yposition Zposition Zrotation Xrotation Yrotation
        JOINT head
        {
          OFFSET 0 6.2923 0
          CHANNELS 6 Xposition Yposition Zposition Zrotation Xrotation Yrotation
          End Site
          {
            OFFSET 0 21.2161 0
          }
        }
      }
      JOINT lCollar
      {
        OFFSET 4.0639 26.6115 -1.1234
        CHANNELS 6 Xposition Yposition Zposition Zrotation Xrotation Yrotation
        JOINT lShldr
        {
          OFFSET 14.1772 0 0
          CHANNELS 6 Xposition Yposition Zposition Zrotation Xrotation Yrotation
          JOINT lForeArm
          {
            OFFSET 26.1234 0 0
            CHANNELS 6 Xposition Yposition Zposition Zrotation Xrotation Yrotation
            JOINT lHand
            {
              OFFSET 27.7188 0 0
              CHANNELS 6 Xposition Yposition Zposition Zrotation Xrotation Yrotation
              JOINT lThumb1
              {
                OFFSET 2.2979 -0.4685 1.8313
                CHANNELS 6 Xposition Yposition Zposition Zrotation Xrotation Yrotation
                JOINT lThumb2
                {
                  OFFSET 5.2953 0 0
                  CHANNELS 6 Xposition Yposition Zposition Zrotation Xrotation Yrotation
                  JOINT lThumb3
                  {
                    OFFSET 3.0181 0 0
                    CHANNELS 6 Xposition Yposition Zposition Zrotation Xrotation Yrotation
                    End Site
                    {
                      OFFSET 2.6294 0 0
                    }
                  }
                }
              }
              JOINT lIndex1
              {
                OFFSET 9.3793 0.2991 2.5924
                CHANNELS 6 Xposition Yposition Zposition Zrotation Xrotation Yrotation
                JOINT lIndex2
                {
                  OFFSET 4.3461 0 0
                  CHANNELS 6 Xposition Yposition Zposition Zrotation Xrotation Yrotation
                  JOINT lIndex3
                  {
                    OFFSET 2.1666 0 0
                    CHANNELS 6 Xposition Yposition Zposition Zrotation Xrotation Yrotation
                    End Site
                    {
                      OFFSET 2.2048 0 0
                    }
                  }
                }
              }
              JOINT lMid1
              {
                OFFSET 9.4769 0.8376 0.2947
                CHANNELS 6 Xposition Yposition Zposition Zrotation Xrotation Yrotation
                JOINT lMid2
                {
                  OFFSET 4.772 0 0
                  CHANNELS 6 Xposition Yposition Zposition Zrotation Xrotation Yrotation
                  JOINT lMid3
                  {
                    OFFSET 2.8722 0 0
                    CHANNELS 6 Xposition Yposition Zposition Zrotation Xrotation Yrotation
                    End Site
                    {
                      OFFSET 2.0959 0 0
                    }
                  }
                }
              }
              JOINT lRing1
              {
                OFFSET 8.6586 1.0176 -1.7016
                CHANNELS 6 Xposition Yposition Zposition Zrotation Xrotation Yrotation
                JOINT lRing2
                {
                  OFFSET 4.5461 0 0
                  CHANNELS 6 Xposition Yposition Zposition Zrotation Xrotation Yrotation
                  JOINT lRing3
                  {
                    OFFSET 2.506 0 0
                    CHANNELS 6 Xposition Yposition Zposition Zrotation Xrotation Yrotation
                    End Site
                    {
                      OFFSET 2.2023 0 0
                    }
                  }
                }
              }
              JOINT lPinky1
              {
                OFFSET 7.6901 0.6618 -3.9096
                CHANNELS 6 Xposition Yposition Zposition Zrotation Xrotation Yrotation
                JOINT lPinky2
                {
                  OFFSET 3.2119 0 0
                  CHANNELS 6 Xposition Yposition Zposition Zrotation Xrotation Yrotation
                  JOINT lPinky3
                  {
                    OFFSET 1.924 0 0
                    CHANNELS 6 Xposition Yposition Zposition Zrotation Xrotation Yrotation
                    End Site
                    {
                      OFFSET 1.7829 0 0
                    }
                  }
                }
              }
            }
          }
        }
      }
      JOINT rCollar
      {
        OFFSET -4.0677 26.6109 -1.1234
        CHANNELS 6 Xposition Yposition Zposition Zrotation Xrotation Yrotation
        JOINT rShldr
        {
          OFFSET -14.1772 0 0
          CHANNELS 6 Xposition Yposition Zposition Zrotation Xrotation Yrotation
          JOINT rForeArm
          {
            OFFSET -26.1234 0 0
            CHANNELS 6 Xposition Yposition Zposition Zrotation Xrotation Yrotation
            JOINT rHand
            {
              OFFSET -27.7188 0 0
              CHANNELS 6 Xposition Yposition Zposition Zrotation Xrotation Yrotation
              JOINT rThumb1
              {
                OFFSET -2.2979 -0.4684 1.8313
                CHANNELS 6 Xposition Yposition Zposition Zrotation Xrotation Yrotation
                JOINT rThumb2
                {
                  OFFSET -5.2953 0 0
                  CHANNELS 6 Xposition Yposition Zposition Zrotation Xrotation Yrotation
                  JOINT rThumb3
                  {
                    OFFSET -3.0181 0 0
                    CHANNELS 6 Xposition Yposition Zposition Zrotation Xrotation Yrotation
                    End Site
                    {
                      OFFSET -2.6294 0 0
                    }
                  }
                }
              }
              JOINT rIndex1
              {
                OFFSET -9.3793 0.2991 2.5924
                CHANNELS 6 Xposition Yposition Zposition Zrotation Xrotation Yrotation
                JOINT rIndex2
                {
                  OFFSET -4.3461 0 0
                  CHANNELS 6 Xposition Yposition Zposition Zrotation Xrotation Yrotation
                  JOINT rIndex3
                  {
                    OFFSET -2.1666 0 0
                    CHANNELS 6 Xposition Yposition Zposition Zrotation Xrotation Yrotation
                    End Site
                    {
                      OFFSET -2.2048 0 0
                    }
                  }
                }
              }
              JOINT rMid1
              {
                OFFSET -9.4769 0.8376 0.2947
                CHANNELS 6 Xposition Yposition Zposition Zrotation Xrotation Yrotation
                JOINT rMid2
                {
                  OFFSET -4.772 0 0
                  CHANNELS 6 Xposition Yposition Zposition Zrotation Xrotation Yrotation
                  JOINT rMid3
                  {
                    OFFSET -2.8722 0 0
                    CHANNELS 6 Xposition Yposition Zposition Zrotation Xrotation Yrotation
                    End Site
                    {
                      OFFSET -2.0959 0 0
                    }
                  }
                }
              }
              JOINT rRing1
              {
                OFFSET -8.6586 1.0176 -1.7016
                CHANNELS 6 Xposition Yposition Zposition Zrotation Xrotation Yrotation
                JOINT rRing2
                {
                  OFFSET -4.5461 0 0
                  CHANNELS 6 Xposition Yposition Zposition Zrotation Xrotation Yrotation
                  JOINT rRing3
                  {
                    OFFSET -2.506 0 0
                    CHANNELS 6 Xposition Yposition Zposition Zrotation Xrotation Yrotation
                    End Site
                    {
                      OFFSET -2.2023 0 0
                    }
                  }
                }
              }
              JOINT rPinky1
              {
                OFFSET -7.6901 0.6618 -3.9096
                CHANNELS 6 Xposition Yposition Zposition Zrotation Xrotation Yrotation
                JOINT rPinky2
                {
                  OFFSET -3.2119 0 0
                  CHANNELS 6 Xposition Yposition Zposition Zrotation Xrotation Yrotation
                  JOINT rPinky3
                  {
                    OFFSET -1.924 0 0
                    CHANNELS 6 Xposition Yposition Zposition Zrotation Xrotation Yrotation
                    End Site
                    {
                      OFFSET -1.7829 0 0
                    }
                  }
                }
              }
            }
          }
        }
      }
    }
  }
  JOINT lThigh
  {
    OFFSET 8.7379 -0.0029 0.0005
    CHANNELS 6 Xposition Yposition Zposition Zrotation Xrotation Yrotation
    JOINT lShin
    {
      OFFSET 0 -46.6676 0
      CHANNELS 6 Xposition Yposition Zposition Zrotation Xrotation Yrotation
      JOINT lFoot
      {
        OFFSET 0 -40.1476 0
        CHANNELS 6 Xposition Yposition Zposition Zrotation Xrotation Yrotation
        JOINT lToes
        {
          OFFSET 0 -8.8846 14.2294
          CHANNELS 6 Xposition Yposition Zposition Zrotation Xrotation Yrotation
          End Site
          {
            OFFSET 0 0 6.296
          }
        }
      }
    }
  }
  JOINT rThigh
  {
    OFFSET -8.7379 0.0029 -0.0005
    CHANNELS 6 Xposition Yposition Zposition Zrotation Xrotation Yrotation
    JOINT rShin
    {
      OFFSET 0 -46.6676 0
      CHANNELS 6 Xposition Yposition Zposition Zrotation Xrotation Yrotation
      JOINT rFoot
      {
        OFFSET 0 -40.1476 0
        CHANNELS 6 Xposition Yposition Zposition Zrotation Xrotation Yrotation
        JOINT rToes
        {
          OFFSET 0 -8.8846 14.2294
          CHANNELS 6 Xposition Yposition Zposition Zrotation Xrotation Yrotation
          End Site
          {
            OFFSET 0 0 6.296
          }
        }
      }
    }
  }
}
MOTION
Frames:	4
Frame Time:	0.0333333
-0.570224 89.8853 2.43558 -3.48614 -10.4367 -17.3712 5.55112e-17 7.2397 0 -1.36768 -0.280207 -6.02949 5.55112e-17 16.546 -3.55271e-15 -3.31066 1.50053 -11.7879 8.88178e-16 34.2149 -3.55271e-15 -0.527437 34.4753 6.5588 -4.44089e-16 6.2923 1.42109e-14 -5.12523 -23.2295 30.8205 4.0639 26.6115 -1.1234 -3.42282 -3.58795 1.41361 14.1772 -2.84217e-14 -3.55271e-15 -65.6072 20.6538 -60.2938 26.1234 0 0 -0.852043 0.986243 -98.347 27.7188 -1.42109e-14 3.55271e-15 -6.45134 8.8031 -16.8468 2.2979 -0.4685 1.8313 41.7977 57.0324 -96.4075 5.2953 -7.10543e-15 2.84217e-14 -30.6168 -8.54011 10.6803 3.0181 0 0 -8.14209 -6.6282 11.1173 9.3793 0.2991 2.5924 -34.239 -2.82476 0.0609201 4.3461 0 0 -61.0696 -6.48996 11.4433 2.1666 0 0 -19.6136 -0.729455 3.78989 9.4769 0.8376 0.2947 -24.7017 -4.79115 9.00267 4.772 2.84217e-14 -8.88178e-16 -59.139 -7.79151 13.8442 2.8722 -5.68434e-14 -8.88178e-16 -42.9585 -4.18424 12.3769 8.6586 1.0176 -1.7016 -41.2585 0.238105 7.34321 4.5461 -2.84217e-14 3.55271e-15 -50.6434 -3.28547 6.93687 2.506 0 0 -24.2642 -0.729077 4.73307 7.6901 0.6618 -3.9096 -51.4312 -12.6224 7.63102 3.2119 0 -1.77636e-15 -51.4428 -4.645 13.8674 1.924 0 0 -72.3509 -15.018 22.1401 -4.0677 26.6109 -1.1234 3.96658 -4.37572 -0.536795 -14.1772 0 -3.55271e-15 60.4408 12.5789 49.1927 -26.1234 0 1.42109e-14 0.813164 1.14442 109.21 -27.7188 -1.42109e-14 -3.55271e-15 -26.7555 9.33449 34.4365 -2.2979 -0.4684 1.8313 34.9222 26.2487 25.1597 -5.2953 -7.10543e-15 0 -9.47822 -18.15 -41.0367 -3.0181 0 7.10543e-15 -4.77459 -6.64277 -45.9008 -9.3793 0.2991 2.5924 1.76019 -0.760174 16.7436 -4.3461 0 -1.42109e-14 82.9787 -11.3023 -13.0739 -2.1666 0 1.42109e-14 32.4204 -1.99003 -6.38552 -9.4769 0.8376 0.2947 45.7242 -6.84078 3.40921 -4.772 0 1.42109e-14 87.2742 -15.4094 -16.2419 -2.8722 0 -1.42109e-14 44.7843 -4.46775 -12.7933 -8.6586 1.0176 -1.7016 52.1685 -1.12006 3.15584 -4.5461 -1.42109e-14 0 80.3111 -7.53541 -8.92568 -2.506 0 0 47.932 -2.94346 -7.7734 -7.6901 0.6618 -3.9096 66.3573 -14.1302 8.75982 -3.2119 0 -7.10543e-15 38.6774 -4.70149 -13.3432 -1.924 0 0 39.9368 -4.93887 -15.3353 8.7379 -0.0029 0.0005 18.8636 -4.06995 27.0677 -3.55271e-15 -46.6676 0 6.65237 42.0202 6.98686 0 -40.1476 -1.77636e-15 -17.8277 -16.4517 10.2401 0 -8.8846 14.2294 0.0001 4.96962e-17 -3.18055e-15 -8.7379 0.0029 -0.0005 -16.6577 -4.87184 -24.6378 -3.55271e-15 -46.6676 0 -15.6674 35.8145 16.7857 -3.55271e-15 -40.1476 -8.88178e-16 15.9898 -18.6964 4.00928 -3.55271e-15 -8.8846 14.2294 3.97569e-16 7.95139e-16 -9.54166e-15 
-0.582817 89.8694 2.461 -3.45884 -10.4287 -17.3359 0 7.2397 0 -1.36732 -0.279306 -6.02649 1.11022e-16 16.546 3.55271e-15 -3.30781 1.5021 -11.7826 0 34.2149 0 -0.534387 34.4663 6.56745 4.44089e-16 6.2923 0 -5.18381 -23.2257 30.8372 4.0639 26.6115 -1.1234 -3.41932 -3.58913 1.42015 14.1772 0 -3.55271e-15 -65.5454 20.6069 -60.3537 26.1234 0 0 -0.851932 0.987315 -98.4153 27.7188 0 0 -6.53234 8.69294 -16.6395 2.2979 -0.4685 1.8313 41.7977 57.0324 -96.4075 5.2953 -1.42109e-14 -2.84217e-14 -30.6168 -8.54011 10.6803 3.0181 1.77636e-15 -2.84217e-14 -8.14209 -6.6282 11.1173 9.3793 0.2991 2.5924 -34.239 -2.82476 0.0609201 4.3461 0 0 -61.0696 -6.48996 11.4433 2.1666 0 -3.55271e-15 -19.6136 -0.729455 3.78989 9.4769 0.8376 0.2947 -24.7017 -4.79115 9.00267 4.772 0 1.77636e-15 -59.139 -7.79151 13.8442 2.8722 0 1.77636e-15 -42.9585 -4.18424 12.3769 8.6586 1.0176 -1.7016 -41.2585 0.238105 7.34321 4.5461 0 -3.55271e-15 -50.6434 -3.28547 6.93687 2.506 0 3.55271e-15 -24.2642 -0.729077 4.73307 7.6901 0.6618 -3.9096 -51.4312 -12.6224 7.63102 3.2119 0 0 -51.4428 -4.645 13.8674 1.924 0 0 -72.3509 -15.018 22.1401 -4.0677 26.6109 -1.1234 3.97226 -4.37627 -0.540108 -14.1772 0 -7.10543e-15 60.4392 12.6168 49.2261 -26.1234 -1.42109e-14 0 0.812859 1.14535 109.276 -27.7188 -1.42109e-14 -1.77636e-15 -26.849 9.37215 34.2738 -2.2979 -0.4684 1.8313 34.9222 26.2487 25.1597 -5.2953 1.42109e-14 0 -9.47822 -18.15 -41.0367 -3.0181 -1.42109e-14 0 -4.77459 -6.64277 -45.9008 -9.3793 0.2991 2.5924 1.76019 -0.760174 16.7436 -4.3461 0 0 82.9787 -11.3023 -13.0739 -2.1666 2.84217e-14 -2.84217e-14 32.4204 -1.99003 -6.38552 -9.4769 0.8376 0.2947 45.7242 -6.84078 3.40921 -4.772 -1.42109e-14 0 87.2742 -15.4094 -16.2419 -2.8722 0 -1.42109e-14 44.7843 -4.46775 -12.7933 -8.6586 1.0176 -1.7016 52.1685 -1.12006 3.15584 -4.5461 1.42109e-14 0 80.3111 -7.53541 -8.92568 -2.506 0 0 47.932 -2.94346 -7.7734 -7.6901 0.6618 -3.9096 66.3573 -14.1302 8.75982 -3.2119 -2.84217e-14 -1.42109e-14 38.6774 -4.70149 -13.3432 -1.924 2.84217e-14 -7.10543e-15 39.9368 -4.93887 -15.3353 8.7379 -0.0029 0.0005 18.858 -4.09252 27.0808 -3.55271e-15 -46.6676 -7.10543e-15 6.67556 42.057 6.93904 7.10543e-15 -40.1476 0 -17.8431 -16.4812 10.223 0 -8.8846 14.2294 0.0001 0 -9.54166e-15 -8.7379 0.0029 -0.0005 -16.6648 -4.88855 -24.5983 0 -46.6676 0 -15.705 35.8788 16.7213 0 -40.1476 -8.88178e-16 16.0395 -18.7459 4.04447 0 -8.8846 14.2294 -9.93923e-17 -1.98785e-16 -0 
-0.596542 89.8511 2.48844 -3.4288 -10.4199 -17.2958 -5.55112e-17 7.2397 0 -1.36682 -0.278093 -6.02299 -1.66533e-16 16.546 0 -3.30445 1.50425 -11.7765 -4.44089e-16 34.2149 -3.55271e-15 -0.542037 34.4562 6.57705 -4.44089e-16 6.2923 0 -5.24889 -23.2219 30.8557 4.0639 26.6115 -1.1234 -3.41536 -3.59042 1.42722 14.1772 -2.84217e-14 0 -65.4753 20.5547 -60.4211 26.1234 -1.42109e-14 -1.42109e-14 -0.851814 0.98838 -98.4908 27.7188 0 1.06581e-14 -6.61838 8.57037 -16.4126 2.2979 -0.4685 1.8313 41.7977 57.0324 -96.4075 5.2953 0 0 -30.6168 -8.54011 10.6803 3.0181 0 0 -8.14209 -6.6282 11.1173 9.3793 0.2991 2.5924 -34.239 -2.82476 0.0609201 4.3461 2.84217e-14 0 -61.0696 -6.48996 11.4433 2.1666 0 0 -19.6136 -0.729455 3.78989 9.4769 0.8376 0.2947 -24.7017 -4.79115 9.00267 4.772 -2.84217e-14 -1.77636e-15 -59.139 -7.79151 13.8442 2.8722 -2.84217e-14 -1.77636e-15 -42.9585 -4.18424 12.3769 8.6586 1.0176 -1.7016 -41.2585 0.238105 7.34321 4.5461 2.84217e-14 0 -50.6434 -3.28547 6.93687 2.506 -2.84217e-14 0 -24.2642 -0.729077 4.73307 7.6901 0.6618 -3.9096 -51.4312 -12.6224 7.63102 3.2119 2.84217e-14 -1.77636e-15 -51.4428 -4.645 13.8674 1.924 -1.42109e-14 0 -72.3509 -15.018 22.1401 -4.0677 26.6109 -1.1234 3.97856 -4.37689 -0.543776 -14.1772 -2.84217e-14 7.10543e-15 60.4374 12.6578 49.2631 -26.1234 0 0 0.81252 1.14636 109.349 -27.7188 0 0 -26.9509 9.41416 34.0951 -2.2979 -0.4684 1.8313 34.9222 26.2487 25.1597 -5.2953 0 0 -9.47822 -18.15 -41.0367 -3.0181 1.42109e-14 -7.10543e-15 -4.77459 -6.64277 -45.9008 -9.3793 0.2991 2.5924 1.76019 -0.760174 16.7436 -4.3461 3.55271e-15 0 82.9787 -11.3023 -13.0739 -2.1666 0 1.42109e-14 32.4204 -1.99003 -6.38552 -9.4769 0.8376 0.2947 45.7242 -6.84078 3.40921 -4.772 1.42109e-14 0 87.2742 -15.4094 -16.2419 -2.8722 0 0 44.7843 -4.46775 -12.7933 -8.6586 1.0176 -1.7016 52.1685 -1.12006 3.15584 -4.5461 1.42109e-14 0 80.3111 -7.53541 -8.92568 -2.506 1.42109e-14 0 47.932 -2.94346 -7.7734 -7.6901 0.6618 -3.9096 66.3573 -14.1302 8.75982 -3.2119 0 0 38.6774 -4.70149 -13.3432 -1.924 2.84217e-14 0 39.9368 -4.93887 -15.3353 8.7379 -0.0029 0.0005 18.8527 -4.1194 27.0953 0 -46.6676 0 6.70186 42.1007 6.88518 0 -40.1476 1.77636e-15 -17.8601 -16.5148 10.2034 0 -8.8846 14.2294 0.0001 -4.96962e-17 -6.36111e-15 -8.7379 0.0029 -0.0005 -16.6731 -4.90815 -24.5552 0 -46.6676 0 -15.7472 35.9525 16.6511 0 -40.1476 -1.77636e-15 16.0944 -18.8019 4.08284 -3.55271e-15 -8.8846 14.2294 5.96354e-16 0 3.18055e-15 
-0.609351 89.815 2.50877 -3.39504 -10.4116 -17.2268 0 7.2397 0 -1.36421 -0.272488 -6.01536 -1.11022e-16 16.546 3.55271e-15 -3.29628 1.51478 -11.7623 8.88178e-16 34.2149 3.55271e-15 -0.550429 34.4428 6.58923 -4.44089e-16 6.2923 0 -5.33304 -23.2248 30.8812 4.0639 26.6115 -1.1234 -3.40897 -3.59188 1.4328 14.1772 0 0 -65.3529 20.4863 -60.523 26.1234 0 -1.42109e-14 -0.85163 0.989705 -98.5785 27.7188 0 0 -6.67197 8.41516 -16.1775 2.2979 -0.4685 1.8313 41.7977 57.0324 -96.4075 5.2953 0 0 -30.6168 -8.54011 10.6803 3.0181 0 0 -8.14209 -6.6282 11.1173 9.3793 0.2991 2.5924 -34.239 -2.82476 0.0609201 4.3461 -2.84217e-14 0 -61.0696 -6.48996 11.4433 2.1666 0 0 -19.6136 -0.729455 3.78989 9.4769 0.8376 0.2947 -24.7017 -4.79115 9.00267 4.772 2.84217e-14 1.77636e-15 -59.139 -7.79151 13.8442 2.8722 -2.84217e-14 0 -42.9585 -4.18424 12.3769 8.6586 1.0176 -1.7016 -41.2585 0.238105 7.34321 4.5461 0 0 -50.6434 -3.28547 6.93687 2.506 0 0 -24.2642 -0.729077 4.73307 7.6901 0.6618 -3.9096 -51.4312 -12.6224 7.63102 3.2119 2.84217e-14 1.77636e-15 -51.4428 -4.645 13.8674 1.924 0 3.55271e-15 -72.3509 -15.018 22.1401 -4.0677 26.6109 -1.1234 3.98653 -4.37764 -0.548267 -14.1772 0 -7.10543e-15 60.4382 12.691 49.3083 -26.1234 0 0 0.812053 1.14772 109.445 -27.7188 0 3.55271e-15 -27.0507 9.47175 33.9016 -2.2979 -0.4684 1.8313 34.9222 26.2487 25.1597 -5.2953 0 0 -9.47822 -18.15 -41.0367 -3.0181 0 0 -4.77459 -6.64277 -45.9008 -9.3793 0.2991 2.5924 1.76019 -0.760174 16.7436 -4.3461 0 0 82.9787 -11.3023 -13.0739 -2.1666 0 0 32.4204 -1.99003 -6.38552 -9.4769 0.8376 0.2947 45.7242 -6.84078 3.40921 -4.772 1.42109e-14 0 87.2742 -15.4094 -16.2419 -2.8722 0 -1.42109e-14 44.7843 -4.46775 -12.7933 -8.6586 1.0176 -1.7016 52.1685 -1.12006 3.15584 -4.5461 0 1.42109e-14 80.3111 -7.53541 -8.92568 -2.506 -2.84217e-14 -1.42109e-14 47.932 -2.94346 -7.7734 -7.6901 0.6618 -3.9096 66.3573 -14.1302 8.75982 -3.2119 -2.84217e-14 0 38.6774 -4.70149 -13.3432 -1.924 -2.84217e-14 7.10543e-15 39.9368 -4.93887 -15.3353 8.7379 -0.0029 0.0005 18.8631 -4.18867 27.1105 3.55271e-15 -46.6676 7.10543e-15 6.74439 42.2088 6.80204 -3.55271e-15 -40.1476 -1.77636e-15 -17.8801 -16.5741 10.1677 3.55271e-15 -8.8846 14.2294 0.0001 -4.96962e-17 -1.27222e-14 -8.7379 0.0029 -0.0005 -16.6898 -4.95282 -24.5122 3.55271e-15 -46.6676 0 -15.8118 36.093 16.586 0 -40.1476 8.88178e-16 16.1587 -18.8941 4.11822 0 -8.8846 14.2294 0 0 -0 
